HIERARCHY
ROOT Hips
{
	OFFSET 0.000000 0.000000 0.000000
	CHANNELS 6 Xposition Yposition Zposition Xrotation Yrotation Zrotation
	JOINT LeftUpLeg_virtual
	{
		OFFSET 0.000000 0.000000 0.000000
		CHANNELS 3 Xrotation Yrotation Zrotation
		JOINT LeftUpLeg
		{
			OFFSET 11.394100 -6.187798 -0.413800
			CHANNELS 3 Xrotation Yrotation Zrotation
			JOINT LeftLeg
			{
				OFFSET 0.430247 -32.302673 3.732800
				CHANNELS 3 Xrotation Yrotation Zrotation
				JOINT LeftFoot
				{
					OFFSET -0.430247 -48.264931 -6.423300
					CHANNELS 3 Xrotation Yrotation Zrotation
					JOINT LeftToeBase
					{
						OFFSET 4.230900 -16.068199 23.438400
						CHANNELS 3 Xrotation Yrotation Zrotation
						JOINT LeftToe_End
						{
							OFFSET 4.510700 0.695400 19.974600
							CHANNELS 3 Xrotation Yrotation Zrotation
							End Site
							{
								OFFSET 0 0 0
							}
						}
					}
				}
			}
		}
	}
	JOINT RightUpLeg_virtual
	{
		OFFSET 0.000000 0.000000 0.000000
		CHANNELS 3 Xrotation Yrotation Zrotation
		JOINT RightUpLeg
		{
			OFFSET -11.333700 -6.187798 -0.413800
			CHANNELS 3 Xrotation Yrotation Zrotation
			JOINT RightLeg
			{
				OFFSET -0.430392 -32.302628 3.733000
				CHANNELS 3 Xrotation Yrotation Zrotation
				JOINT RightFoot
				{
					OFFSET 0.430392 -48.264973 -6.423500
					CHANNELS 3 Xrotation Yrotation Zrotation
					JOINT RightToeBase
					{
						OFFSET -4.230900 -16.068199 23.438400
						CHANNELS 3 Xrotation Yrotation Zrotation
						JOINT RightToe_End
						{
							OFFSET -4.510700 0.695400 19.974600
							CHANNELS 3 Xrotation Yrotation Zrotation
							End Site
							{
								OFFSET 0 0 0
							}
						}
					}
				}
			}
		}
	}
	JOINT Spine_virtual
	{
		OFFSET 0.000000 0.000000 0.000000
		CHANNELS 3 Xrotation Yrotation Zrotation
		JOINT Spine
		{
			OFFSET -0.002400 12.777504 0.315300
			CHANNELS 3 Xrotation Yrotation Zrotation
			JOINT Spine1
			{
				OFFSET -0.002067 5.816869 0.032633
				CHANNELS 3 Xrotation Yrotation Zrotation
				JOINT Spine1_split
				{
					OFFSET -0.002067 5.816869 0.032633
					CHANNELS 3 Xrotation Yrotation Zrotation
					JOINT Spine2
					{
						OFFSET -0.002067 5.816869 0.032633
						CHANNELS 3 Xrotation Yrotation Zrotation
						JOINT Neck_virtual
						{
							OFFSET 0.000000 0.000000 0.000000
							CHANNELS 3 Xrotation Yrotation Zrotation
							JOINT Neck
							{
								OFFSET -0.003700 21.199493 -0.826900
								CHANNELS 3 Xrotation Yrotation Zrotation
								JOINT Head
								{
									OFFSET 0.000000 20.442200 4.834800
									CHANNELS 3 Xrotation Yrotation Zrotation
									JOINT HeadTop_End
									{
										OFFSET 0.000000 34.668396 4.968400
										CHANNELS 3 Xrotation Yrotation Zrotation
										End Site
										{
											OFFSET 0 0 0
										}
									}
								}
							}
						}
						JOINT LeftShoulder_virtual
						{
							OFFSET 0.000000 0.000000 0.000000
							CHANNELS 3 Xrotation Yrotation Zrotation
							JOINT LeftShoulder
							{
								OFFSET 3.288150 8.794197 -1.372250
								CHANNELS 3 Xrotation Yrotation Zrotation
								JOINT LeftShoulder_split
								{
									OFFSET 3.288150 8.794197 -1.372250
									CHANNELS 3 Xrotation Yrotation Zrotation
									JOINT LeftArm
									{
										OFFSET 11.953299 -2.279007 -0.146200
										CHANNELS 3 Xrotation Yrotation Zrotation
										JOINT LeftForeArm
										{
											OFFSET 18.448900 0.000000 0.000000
											CHANNELS 3 Xrotation Yrotation Zrotation
											JOINT LeftHand
											{
												OFFSET 29.527798 0.000000 0.000000
												CHANNELS 3 Xrotation Yrotation Zrotation
												End Site
												{
													OFFSET 0 0 0
												}
											}
										}
									}
								}
							}
						}
						JOINT RightShoulder_virtual
						{
							OFFSET 0.000000 0.000000 0.000000
							CHANNELS 3 Xrotation Yrotation Zrotation
							JOINT RightShoulder
							{
								OFFSET -3.249400 8.794197 -1.372250
								CHANNELS 3 Xrotation Yrotation Zrotation
								JOINT RightShoulder_split
								{
									OFFSET -3.249400 8.794197 -1.372250
									CHANNELS 3 Xrotation Yrotation Zrotation
									JOINT RightArm
									{
										OFFSET -11.953299 -2.279007 -0.146200
										CHANNELS 3 Xrotation Yrotation Zrotation
										JOINT RightForeArm
										{
											OFFSET -18.448900 0.000000 0.000000
											CHANNELS 3 Xrotation Yrotation Zrotation
											JOINT RightHand
											{
												OFFSET -29.527802 0.000000 0.000000
												CHANNELS 3 Xrotation Yrotation Zrotation
												End Site
												{
													OFFSET 0 0 0
												}
											}
										}
									}
								}
							}
						}
					}
				}
			}
		}
	}
}
MOTION
Frames: 6
Frame Time: 0.03333333
0.188738 82.279190 -0.081081 0.000000 0.000000 0.000000 11.617050 6.886188 -1.211230 -60.635742 1.624749 4.213722 70.653813 9.093825 -0.343810 -17.886208 5.737890 -5.963262 -4.417166 -0.085114 1.081568 0.000000 0.000000 0.000000 11.941044 6.208960 -1.138868 -58.195192 -12.237218 -7.530765 73.238957 -7.490265 -4.597367 -22.451093 -8.700544 3.661770 2.008711 1.377755 -0.404528 0.000000 0.000000 0.000000 12.008201 4.020666 -1.191297 9.019214 0.966168 1.334560 8.899449 1.876958 -0.422246 1.030452 -1.052735 0.384095 0.000000 0.000000 0.000000 9.385353 0.838928 0.056669 -10.081988 -1.395055 6.020159 -25.783114 1.222332 -7.090830 0.000000 0.000000 0.000000 9.424432 0.577618 -0.014151 3.442104 -24.648259 3.657683 -2.542836 0.227674 -3.414222 -62.897429 -24.631494 -65.065386 177.341040 -72.480875 175.795013 0.000000 0.000000 0.000000 8.469604 0.577389 0.162269 0.004647 12.244270 11.202010 0.242297 7.463981 0.788677 -62.949995 31.960695 50.636362 -178.675153 69.781283 177.971944 0.000000 0.000000 0.000000 
0.183877 82.275826 -0.082668 0.000000 0.000000 0.000000 11.598284 6.863203 -1.200704 -60.630797 1.642665 4.224169 70.674337 9.092849 -0.341853 -17.885953 5.745453 -5.973041 -4.418016 -0.085512 1.074324 0.000000 0.000000 0.000000 11.920896 6.185969 -1.129028 -58.189346 -12.235743 -7.522698 73.238267 -7.479683 -4.603699 -22.461077 -8.701877 3.653643 2.005322 1.378169 -0.405935 0.000000 0.000000 0.000000 11.993565 4.003754 -1.185412 9.020491 0.951005 1.345404 8.918367 1.860549 -0.416184 1.028108 -1.049624 0.383324 0.000000 0.000000 0.000000 9.404608 0.820139 0.062214 -10.084347 -1.375632 6.003665 -25.798248 1.289047 -7.109082 0.000000 0.000000 0.000000 9.447958 0.560598 -0.008598 3.442130 -24.656739 3.657279 -2.545563 0.243992 -3.393574 -62.918562 -24.577855 -65.083793 177.335917 -72.524724 175.806064 0.000000 0.000000 0.000000 8.493664 0.560131 0.167042 -0.001769 12.288961 11.173302 0.226202 7.449017 0.779818 -62.976168 31.925868 50.617924 -178.692598 69.841075 177.997134 0.000000 0.000000 0.000000 
0.179818 82.270638 -0.084023 0.000000 0.000000 0.000000 11.575629 6.846055 -1.194716 -60.628727 1.657218 4.236889 70.699561 9.091623 -0.337899 -17.880988 5.755676 -5.984564 -4.418091 -0.084951 1.064833 0.000000 0.000000 0.000000 11.899432 6.161169 -1.122364 -58.183083 -12.237442 -7.512730 73.243322 -7.472276 -4.608082 -22.468877 -8.702460 3.641683 2.003361 1.378931 -0.406798 0.000000 0.000000 0.000000 11.975621 3.983966 -1.180476 9.023604 0.939599 1.355777 8.933709 1.848256 -0.410104 1.019282 -1.038529 0.380551 0.000000 0.000000 0.000000 9.416440 0.805099 0.067720 -10.082471 -1.357552 5.989545 -25.803698 1.344697 -7.121247 0.000000 0.000000 0.000000 9.468461 0.546281 -0.002439 3.441553 -24.659759 3.651993 -2.560884 0.248218 -3.382331 -62.956722 -24.517039 -65.085959 177.330890 -72.576408 175.815189 0.000000 0.000000 0.000000 8.512252 0.545709 0.172566 -0.008401 12.329583 11.147172 0.215477 7.438759 0.776557 -63.029020 31.871056 50.625618 -178.693158 69.899541 178.001355 0.000000 0.000000 0.000000 
0.176355 82.263687 -0.084011 0.000000 0.000000 0.000000 11.549938 6.833739 -1.189066 -60.624930 1.667999 4.244643 70.723563 9.090544 -0.331366 -17.874607 5.767331 -5.999214 -4.420374 -0.084250 1.057557 0.000000 0.000000 0.000000 11.875323 6.135363 -1.114584 -58.176020 -12.239908 -7.504717 73.257754 -7.467048 -4.611320 -22.473831 -8.701056 3.629101 2.002457 1.380148 -0.407704 0.000000 0.000000 0.000000 11.952785 3.960658 -1.171468 9.026758 0.931551 1.363279 8.943766 1.839977 -0.404276 1.006175 -1.027814 0.379557 0.000000 0.000000 0.000000 9.423082 0.795241 0.072794 -10.070799 -1.343656 5.975764 -25.805551 1.374452 -7.125193 0.000000 0.000000 0.000000 9.484202 0.536100 0.004247 3.439974 -24.653947 3.648571 -2.577287 0.235348 -3.385930 -62.997977 -24.467397 -65.064109 177.332010 -72.572030 175.824710 0.000000 0.000000 0.000000 8.523921 0.535600 0.178418 -0.014524 12.358825 11.119428 0.214518 7.441351 0.785169 -63.090307 31.807187 50.668157 -178.686942 69.903257 177.996355 0.000000 0.000000 0.000000 
0.172621 82.255844 -0.080830 0.000000 0.000000 0.000000 11.522340 6.824013 -1.179841 -60.614302 1.676230 4.242900 70.741533 9.089555 -0.322198 -17.869875 5.778931 -6.016540 -4.425637 -0.084086 1.055653 0.000000 0.000000 0.000000 11.849020 6.112880 -1.102844 -58.168616 -12.240739 -7.501242 73.280943 -7.461855 -4.615595 -22.476641 -8.696593 3.621530 2.000836 1.381812 -0.409081 0.000000 0.000000 0.000000 11.925459 3.938141 -1.157490 9.028613 0.925545 1.365444 8.948660 1.835345 -0.399531 0.999211 -1.017361 0.379524 0.000000 0.000000 0.000000 9.425978 0.791045 0.077396 -10.051282 -1.336241 5.961183 -25.809611 1.373660 -7.121067 0.000000 0.000000 0.000000 9.493974 0.530969 0.011099 3.438583 -24.642518 3.651775 -2.586628 0.214764 -3.398975 -63.023317 -24.440300 -65.016789 177.334879 -72.491625 175.827579 0.000000 0.000000 0.000000 8.528832 0.530008 0.183871 -0.019020 12.375491 11.090236 0.217983 7.448601 0.801598 -63.147633 31.751603 50.737572 -178.677489 69.843117 177.987790 0.000000 0.000000 0.000000 
0.168697 82.247849 -0.075470 0.000000 0.000000 0.000000 11.495605 6.813893 -1.165878 -60.594611 1.683583 4.231035 70.751894 9.090105 -0.312041 -17.869091 5.790080 -6.033826 -4.431078 -0.084654 1.058375 0.000000 0.000000 0.000000 11.822096 6.094673 -1.086820 -58.161212 -12.238499 -7.502215 73.309500 -7.455788 -4.622264 -22.479189 -8.689222 3.620635 1.997488 1.383729 -0.410923 0.000000 0.000000 0.000000 11.897113 3.920833 -1.139816 9.029969 0.920563 1.362497 8.949740 1.833516 -0.396318 0.998758 -1.008060 0.377318 0.000000 0.000000 0.000000 9.427731 0.792008 0.081111 -10.029161 -1.335994 5.948445 -25.823017 1.344935 -7.113339 0.000000 0.000000 0.000000 9.498380 0.530490 0.016395 3.437469 -24.632145 3.661320 -2.581286 0.201251 -3.414999 -63.023125 -24.431824 -64.951418 177.340753 -72.361722 175.824628 0.000000 0.000000 0.000000 8.529387 0.529578 0.188043 -0.022367 12.381239 11.060569 0.234430 7.462119 0.815928 -63.195786 31.717237 50.815262 -178.670782 69.755807 177.982094 0.000000 0.000000 0.000000 
